<?xml version="1.0" encoding="UTF-8" standalone="no"?>
<svg width="242px" height="316px" viewBox="0 0 242 316" version="1.1" xmlns="http://www.w3.org/2000/svg" xmlns:xlink="http://www.w3.org/1999/xlink" xmlns:sketch="http://www.bohemiancoding.com/sketch/ns">
    <!-- Generator: Sketch 3.0.2 (7799) - http://www.bohemiancoding.com/sketch -->
    <title>mailsafe</title>
    <description>Created with Sketch.</description>
    <defs></defs>
    <g id="Page-1" stroke="none" stroke-width="1" fill="none" fill-rule="evenodd" sketch:type="MSPage">
        <path d="M29.524,132.11026 L29.524,91.7162982 C29.524,41.0669582 70.5875473,0 121.242,0 C171.89332,0 212.96,41.0627854 212.96,91.7162982 L212.96,132.11026 L242,132.11026 L242,316 L0,316 L0,132.11026 L29.524,132.11026 L29.524,132.11026 Z M70.18,132.11026 L70.18,92.9202703 C70.18,64.8558373 92.932889,42.101072 121,42.101072 C149.073282,42.101072 171.82,64.8536021 171.82,92.9202703 L171.82,132.11026 L70.18,132.11026 Z M121,212.076211 L19.36,151.467075 L19.36,296.643185 L222.64,296.643185 L222.64,151.467075 L121,212.076211 Z" id="Rectangle-3" fill="#89C0E5" sketch:type="MSShapeGroup"></path>
    </g>
</svg>